<?xml version="1.0" encoding="UTF-8" standalone="no"?>
<svg
   viewBox="0 0 932.88 932.88"
   version="1.1"
   id="svg851"
   width="932.88"
   height="932.88"
   xmlns:xlink="http://www.w3.org/1999/xlink"
   xmlns="http://www.w3.org/2000/svg"
   xmlns:svg="http://www.w3.org/2000/svg">
  <g
     fill="currentColor"
     id="g844"
     transform="translate(-1067.13,-843.6)">
    <use
       xlink:href="#A"
       id="use826"
       x="0"
       y="0"
       width="100%"
       height="100%" />
    <use
       xlink:href="#A"
       x="0.0020000001"
       y="213.27901"
       id="use828"
       width="100%"
       height="100%" />
    <use
       xlink:href="#B"
       id="use830"
       x="0"
       y="0"
       width="100%"
       height="100%" />
    <use
       xlink:href="#B"
       x="-0.059999999"
       y="210.92999"
       id="use832"
       width="100%"
       height="100%" />
    <path
       d="m 1838.69,1470.23 c -28.01,-0.05 -56.02,0.05 -84.03,-0.08 l -0.18,104.36 85.31,-0.08 c 5.02,0.03 9.4,-4.63 9.29,-9.6 l 0.01,-84.42 c 0.45,-5.69 -4.81,-10.54 -10.4,-10.18 z m -58.03,81.05 c -1.4,5.07 -7.73,2.65 -11.49,3.2 -3.44,-0.32 -9.23,1.48 -10.21,-3.29 0.55,-4.54 -1.72,-10.32 1.63,-13.99 3.44,-1.4 7.47,-0.3 11.15,-0.64 3.08,0.15 7.91,-1.11 8.89,3.03 0.13,3.88 0.09,7.79 0.03,11.69 z m -0.08,-45.71 c -1.49,3.63 -5.89,2.57 -8.97,2.7 -3.66,-0.32 -7.54,0.71 -11.01,-0.68 -2.6,-1.94 -1.51,-5.52 -1.73,-8.26 0.3,-2.8 -1.03,-6.55 1.8,-8.39 2.94,-1.49 6.55,-0.4 9.75,-0.72 3.43,0.32 8.54,-1.36 10.16,2.82 a 137.79,137.79 0 0 1 0,12.53 z"
       id="path834" />
    <use
       xlink:href="#C"
       id="use836"
       x="0"
       y="0"
       width="100%"
       height="100%" />
    <use
       xlink:href="#C"
       x="-1.16"
       y="211.57001"
       id="use838"
       width="100%"
       height="100%" />
    <use
       xlink:href="#C"
       x="1.15"
       y="422.17999"
       id="use840"
       width="100%"
       height="100%" />
    <path
       d="m 1226.81,1152.31 85.21,-0.01 -0.04,-104.08 c -28.4,0.1 -56.81,-0.03 -85.21,0.05 -5.04,-0.05 -9.53,4.59 -9.32,9.64 l -0.01,84.48 c -0.36,5.14 4.15,10.1 9.37,9.92 z m 80.9,-27.57 c 0.19,2.89 0.18,7.39 -3.7,7.67 -5.09,0.05 -10.19,0.13 -15.26,-0.05 -3.88,-1.2 -2.85,-5.78 -2.96,-8.87 0.29,-2.82 -1,-6.72 1.95,-8.47 5.52,-1.25 11.58,-0.48 17.26,-0.4 3.94,1.75 2.39,6.74 2.71,10.12 z m -18.86,-56.42 c 5.3,-0.13 10.61,-0.15 15.9,0.01 3.72,1.05 2.89,5.6 2.96,8.55 -0.2,3.06 0.93,7.49 -2.57,9.12 -5.46,0.3 -10.96,0.2 -16.42,0.06 -4.04,-1.2 -2.7,-6.09 -2.93,-9.23 0.08,-2.98 -0.85,-7.59 3.06,-8.51 z m 396,-122.73 h 56.24 v 731.48 h -56.24 z m -359.34,-0.02 h 56.24 v 731.48 h -56.24 z"
       id="path842" />
  </g>
  <defs
     id="defs849">
    <path
       id="A"
       d="m 1839.78,1152.31 c 5.2,0.15 9.66,-4.79 9.33,-9.91 l -0.01,-84.39 c 0.2,-5.09 -4.3,-9.85 -9.43,-9.74 -28.39,-0.06 -56.78,0.04 -85.18,-0.05 l -0.08,104.02 z m -77.99,-83.98 a 276.36,276.36 0 0 1 16.03,0 c 4.22,1.34 2.57,6.37 2.89,9.7 -0.05,2.8 0.69,6.87 -2.72,8.02 -5.47,0.19 -10.96,0.19 -16.42,0 -3.76,-1.49 -2.48,-6.09 -2.69,-9.19 0.06,-2.95 -0.85,-7.47 2.91,-8.53 z m -1.14,46.84 c 5.01,-1.64 10.78,-0.37 16.09,-0.71 4.1,-0.06 4.3,4.72 3.96,7.73 -0.42,3.32 1.45,8.54 -2.72,10 -5.11,0.55 -10.32,0.16 -15.45,0.21 -4.49,-0.42 -3.69,-5.74 -3.66,-8.92 0.31,-2.76 -1.03,-6.47 1.78,-8.31 z" />
    <path
       id="B"
       d="m 1226.89,1363.44 85.1,0.05 v -104.24 c -28.36,0.06 -56.74,-0.01 -85.1,0.04 -4.92,-0.06 -9.4,4.33 -9.42,9.24 l -0.05,84.44 c -0.51,5.33 4.07,10.53 9.47,10.47 z m 80.82,-29.3 c -0.21,3.08 0.95,7.57 -2.61,9.16 -5.07,0.25 -10.16,0.08 -15.23,0.1 -2.3,0.35 -4.28,-1.99 -4.04,-4.16 -0.04,-3.42 -0.1,-6.84 0.05,-10.23 -0.1,-1.66 1.46,-3.05 2.98,-3.38 5.3,-0.1 10.61,-0.14 15.9,0.01 3.71,1.02 2.86,5.59 2.95,8.5 z m -20.17,-54.27 c 5.59,-1.34 11.67,-0.44 17.44,-0.49 3.81,1.51 2.51,6.17 2.74,9.33 -0.04,2.9 0.69,7.48 -3.05,8.37 a 321.73,321.73 0 0 1 -15.84,0.01 c -3.81,-0.98 -3,-5.44 -3.03,-8.42 0.31,-2.92 -1.03,-6.73 1.74,-8.8 z" />
    <path
       id="C"
       d="m 1671.34,1152.4 0.11,-104.05 c -92.09,-0.24 -184.19,0.01 -276.28,-0.13 l 0.09,104.22 z m -26.15,-75.6 c 0.08,-2.98 -0.88,-7.63 3.05,-8.47 5.3,-0.13 10.62,-0.15 15.93,0.01 3.64,1.12 2.79,5.59 2.95,8.53 -0.23,3.08 0.87,7.53 -2.64,9.14 -5.46,0.3 -10.95,0.2 -16.41,0.06 -4.06,-1.2 -2.64,-6.13 -2.88,-9.27 z m 0,46.65 c 0.29,-2.8 -1.03,-6.66 1.93,-8.41 5.51,-1.27 11.6,-0.48 17.32,-0.42 3.81,1.82 2.38,6.75 2.69,10.11 0.05,2.86 0.16,7.38 -3.72,7.68 -5.07,0.06 -10.16,0.11 -15.22,-0.05 -4,-1.12 -2.88,-5.82 -3,-8.91 z m -245.73,-46.7 c 0.05,-2.91 -0.71,-7.29 2.89,-8.4 5.33,-0.18 10.69,-0.16 16.04,-0.03 3.86,1.02 2.89,5.54 2.99,8.55 -0.23,3.11 1.06,7.81 -2.79,9.18 -5.51,0.16 -11.03,0.24 -16.55,-0.04 -3.55,-1.65 -2.39,-6.15 -2.58,-9.26 z m 1.85,38.38 c 4.6,-1.58 9.87,-0.3 14.73,-0.71 3.12,-0.69 5.99,2.14 5.32,5.27 -0.63,3.96 1.64,9.33 -1.95,12.19 -5.27,1.21 -10.88,0.3 -16.28,0.52 -3.82,-0.29 -3.9,-4.74 -3.67,-7.62 0.39,-3.14 -1.16,-7.45 1.85,-9.65 z" />
  </defs>
</svg>
